<svg id="OBJECTS" xmlns="http://www.w3.org/2000/svg" xmlns:xlink="http://www.w3.org/1999/xlink" viewBox="0 0 418.93 469.19"><defs><style>.cls-1{fill:url(#radial-gradient);}.cls-2{fill:url(#linear-gradient);}.cls-3{fill:url(#linear-gradient-2);}.cls-4{fill:url(#linear-gradient-3);}.cls-5{fill:#211033;}</style><radialGradient id="radial-gradient" cx="54.21" cy="171.93" r="221.15" gradientUnits="userSpaceOnUse"><stop offset="0.17" stop-color="#4674b5"/><stop offset="0.33" stop-color="#4878b5"/><stop offset="0.49" stop-color="#4f84b6"/><stop offset="0.66" stop-color="#5998b6"/><stop offset="0.82" stop-color="#68b4b7"/><stop offset="0.98" stop-color="#7cd8b9"/><stop offset="1" stop-color="#7edcb9"/></radialGradient><linearGradient id="linear-gradient" x1="87.79" y1="151.36" x2="367.66" y2="151.36" gradientUnits="userSpaceOnUse"><stop offset="0" stop-color="#7edcb9"/><stop offset="0.02" stop-color="#7cd8b9"/><stop offset="0.18" stop-color="#68b4b7"/><stop offset="0.34" stop-color="#5998b6"/><stop offset="0.51" stop-color="#4f84b6"/><stop offset="0.67" stop-color="#4878b5"/><stop offset="0.83" stop-color="#4674b5"/></linearGradient><linearGradient id="linear-gradient-2" x1="1427.08" y1="163.21" x2="1627.11" y2="163.21" gradientTransform="translate(1892.21 433.26) rotate(180)" gradientUnits="userSpaceOnUse"><stop offset="0.01" stop-color="#8c0053"/><stop offset="0.14" stop-color="#8f0651"/><stop offset="0.32" stop-color="#99174d"/><stop offset="0.53" stop-color="#a93445"/><stop offset="0.76" stop-color="#bf5b3b"/><stop offset="1" stop-color="#db8d2e"/></linearGradient><linearGradient id="linear-gradient-3" x1="1468" y1="72.43" x2="1747.88" y2="72.43" gradientTransform="translate(1892.21 433.26) rotate(180)" gradientUnits="userSpaceOnUse"><stop offset="0" stop-color="#db8d2e"/><stop offset="0.24" stop-color="#bf5b3b"/><stop offset="0.47" stop-color="#a93445"/><stop offset="0.68" stop-color="#99174d"/><stop offset="0.86" stop-color="#8f0651"/><stop offset="0.99" stop-color="#8c0053"/></linearGradient></defs><title>logo</title><path class="cls-1" d="M179,330.5a39.77,39.77,0,0,0,56.26,0h0a39.77,39.77,0,0,0,0-56.26L114.78,153.78a39.77,39.77,0,0,0-56.26,0h0a39.78,39.78,0,0,0,0,56.26l71.26,71.08Z" transform="translate(-46.53 -21.4)"/><path class="cls-2" d="M235.24,33.24a39.78,39.78,0,0,0-56.26,0L58.52,153.71c-15.21,15.21-16.17,39-1.59,54.61l.62.65.8.8.17.19c.06.07.13.12.2.19l71.06,71c-38.26-38.26,13.11-99.26,13.11-99.26h0L235.24,89.5A39.78,39.78,0,0,0,235.24,33.24Z" transform="translate(-46.53 -21.4)"/><path class="cls-3" d="M333,181.69a39.77,39.77,0,0,0-56.26,0h0a39.76,39.76,0,0,0,0,56.25L397.22,358.41a39.77,39.77,0,0,0,56.26,0h0a39.78,39.78,0,0,0,0-56.26l-71.26-71.08Z" transform="translate(-46.53 -21.4)"/><path class="cls-4" d="M276.76,479A39.79,39.79,0,0,0,333,479L453.48,358.48c15.21-15.21,16.17-39,1.59-54.61l-.62-.66-.8-.8-.17-.19c-.06-.06-.14-.11-.2-.18l-71.06-71c38.27,38.26-13.11,99.26-13.11,99.26h0l-92.36,92.37A39.77,39.77,0,0,0,276.76,479Z" transform="translate(-46.53 -21.4)"/><path class="cls-5" d="M231.37,463.09a38.52,38.52,0,0,1-48.26,25.26h0a38.52,38.52,0,0,1-25.26-48.26L282.45,48.44a38.53,38.53,0,0,1,48.27-25.27h0A38.54,38.54,0,0,1,356,71.43Z" transform="translate(-46.53 -21.4)"/></svg>