<svg id="OBJECTS" xmlns="http://www.w3.org/2000/svg" xmlns:xlink="http://www.w3.org/1999/xlink" viewBox="0 0 272.66 391.58"><defs><style>.cls-1{fill:url(#radial-gradient);}.cls-2{fill:url(#linear-gradient);}.cls-3{fill:url(#linear-gradient-2);}.cls-4{fill:url(#linear-gradient-3);}.cls-5,.cls-6{fill:#211033;}.cls-6{font-size:30.62px;font-family:Montserrat-Bold, Montserrat;font-weight:700;letter-spacing:0.2em;}.cls-7{font-size:12.01px;fill:#7edcb9;font-family:Montserrat-Medium, Montserrat;font-weight:500;letter-spacing:1.19em;}.cls-8{letter-spacing:1.2em;}</style><radialGradient id="radial-gradient" cx="124.67" cy="158.19" r="143.93" gradientUnits="userSpaceOnUse"><stop offset="0.17" stop-color="#4674b5"/><stop offset="0.33" stop-color="#4878b5"/><stop offset="0.49" stop-color="#4f84b6"/><stop offset="0.66" stop-color="#5998b6"/><stop offset="0.82" stop-color="#68b4b7"/><stop offset="0.98" stop-color="#7cd8b9"/><stop offset="1" stop-color="#7edcb9"/></radialGradient><linearGradient id="linear-gradient" x1="146.52" y1="144.79" x2="328.68" y2="144.79" gradientUnits="userSpaceOnUse"><stop offset="0" stop-color="#7edcb9"/><stop offset="0.02" stop-color="#7cd8b9"/><stop offset="0.18" stop-color="#68b4b7"/><stop offset="0.34" stop-color="#5998b6"/><stop offset="0.51" stop-color="#4f84b6"/><stop offset="0.67" stop-color="#4878b5"/><stop offset="0.83" stop-color="#4674b5"/></linearGradient><linearGradient id="linear-gradient-2" x1="1500.1" y1="211.21" x2="1630.29" y2="211.21" gradientTransform="translate(1892.21 433.26) rotate(180)" gradientUnits="userSpaceOnUse"><stop offset="0.01" stop-color="#8c0053"/><stop offset="0.14" stop-color="#8f0651"/><stop offset="0.32" stop-color="#99174d"/><stop offset="0.53" stop-color="#a93445"/><stop offset="0.76" stop-color="#bf5b3b"/><stop offset="1" stop-color="#db8d2e"/></linearGradient><linearGradient id="linear-gradient-3" x1="1526.73" y1="152.13" x2="1708.89" y2="152.13" gradientTransform="translate(1892.21 433.26) rotate(180)" gradientUnits="userSpaceOnUse"><stop offset="0" stop-color="#db8d2e"/><stop offset="0.24" stop-color="#bf5b3b"/><stop offset="0.47" stop-color="#a93445"/><stop offset="0.68" stop-color="#99174d"/><stop offset="0.86" stop-color="#8f0651"/><stop offset="0.99" stop-color="#8c0053"/></linearGradient></defs><title>logo</title><path class="cls-1" d="M205.87,261.39a25.9,25.9,0,0,0,36.62,0h0a25.9,25.9,0,0,0,0-36.62l-78.4-78.4a25.9,25.9,0,0,0-36.62,0h0a25.89,25.89,0,0,0,0,36.61l46.38,46.27Z" transform="translate(-119.67 -60.21)"/><path class="cls-2" d="M242.49,67.92a25.89,25.89,0,0,0-36.62,0l-78.4,78.4c-9.9,9.9-10.52,25.39-1,35.55l.41.42.52.52.11.13a1.42,1.42,0,0,1,.13.12l46.25,46.19c-24.9-24.9,8.53-64.6,8.53-64.6h0l60.12-60.12A25.89,25.89,0,0,0,242.49,67.92Z" transform="translate(-119.67 -60.21)"/><path class="cls-3" d="M306.13,164.53a25.9,25.9,0,0,0-36.62,0h0a25.9,25.9,0,0,0,0,36.62l78.41,78.41a25.89,25.89,0,0,0,36.61,0h0a25.89,25.89,0,0,0,0-36.62l-46.38-46.27Z" transform="translate(-119.67 -60.21)"/><path class="cls-4" d="M269.51,358a25.91,25.91,0,0,0,36.62,0l78.4-78.41c9.9-9.9,10.52-25.39,1-35.54l-.41-.43-.52-.52a1.31,1.31,0,0,0-.11-.12,1.42,1.42,0,0,0-.13-.12l-46.25-46.2c24.91,24.9-8.53,64.61-8.53,64.61h0l-60.12,60.12A25.9,25.9,0,0,0,269.51,358Z" transform="translate(-119.67 -60.21)"/><path class="cls-5" d="M240,347.68a25.07,25.07,0,0,1-31.41,16.45h0a25.08,25.08,0,0,1-16.44-31.41l81.1-254.91a25.07,25.07,0,0,1,31.41-16.45h0a25.07,25.07,0,0,1,16.44,31.41Z" transform="translate(-119.67 -60.21)"/><text class="cls-6" transform="translate(77.67 368.74)">BOOP</text><text class="cls-7" transform="translate(80.62 388.42)">C<tspan class="cls-8" x="22.92" y="0">ODES</tspan></text></svg>